<svg width="99" height="35" viewBox="0 0 99 35" fill="none" xmlns="http://www.w3.org/2000/svg">
<path d="M5.50249 7.89066C4.45311 7.89066 3.60553 7.58122 2.95976 6.96236C2.31398 6.34349 1.9911 5.54973 1.9911 4.58107C1.9911 3.45096 2.34089 2.52266 3.04048 1.79617C3.76697 1.06967 4.73563 0.706421 5.94646 0.706421C7.15729 0.706421 8.08559 1.01585 8.73136 1.63472C9.37713 2.25359 9.70002 3.04735 9.70002 4.01601C9.70002 5.17303 9.33677 6.11478 8.61028 6.84127C7.88378 7.54086 6.86131 7.89066 5.54285 7.89066H5.50249ZM3.04048 15.5996L0.336304 14.8327V11.8057L8.40847 10.837H8.48919L9.74038 11.6846V30.7753L12.162 31.1385V33.8023H0.538108V31.1385L3.04048 30.7753V15.5996ZM17.5802 34.0606C16.8484 34.0606 16.2026 33.8023 15.6429 33.2857C15.1048 32.7691 14.8357 32.1341 14.8357 31.3807C14.8357 30.5197 15.1478 29.8201 15.7721 29.2819C16.3963 28.7222 17.1712 28.4424 18.0969 28.4424C18.9364 28.4424 19.6144 28.7115 20.131 29.2496C20.6477 29.7878 20.906 30.4228 20.906 31.1547C20.906 32.0587 20.6046 32.7691 20.0019 33.2857C19.3992 33.8023 18.5919 34.0606 17.5802 34.0606ZM23.5714 24.9552C23.5714 23.0394 23.9589 21.3604 24.7338 19.9182C25.5087 18.476 26.5958 17.3674 27.995 16.5925C29.3941 15.796 31.0086 15.3978 32.8383 15.3978C33.7423 15.3978 34.5173 15.4624 35.163 15.5915C35.8303 15.6991 36.5084 15.8606 37.1972 16.0758C37.8215 16.248 38.2089 16.3449 38.3596 16.3664L38.1336 22.2107H34.8724L34.0329 18.4975C33.9684 18.2177 33.7854 18.0239 33.484 17.9163C33.2042 17.7871 32.8598 17.7226 32.4508 17.7226C31.4391 17.7226 30.6426 18.2177 30.0614 19.2078C29.5018 20.198 29.2219 21.8448 29.2219 24.148C29.2219 26.3436 29.5771 28.0334 30.2875 29.2173C31.0193 30.3797 31.9988 30.9609 33.2257 30.9609C34.8186 30.9609 36.2824 30.5519 37.617 29.734L38.4888 31.639C37.9722 32.2202 37.1219 32.7906 35.938 33.3503C34.7541 33.8884 33.441 34.1575 31.9988 34.1575C29.1789 34.1575 27.0693 33.3288 25.6702 31.6713C24.271 29.9923 23.5714 27.7536 23.5714 24.9552ZM42.1838 10.4899L39.9236 10.0701V8.10053L46.3813 7.32561H46.4782L47.4146 8.00367V31.3807L49.5133 31.6713V33.8023H40.1173V31.6713L42.1838 31.3807V10.4899ZM55.2204 13.073C54.3809 13.073 53.7028 12.8254 53.1862 12.3304C52.6696 11.8353 52.4113 11.2002 52.4113 10.4253C52.4113 9.52124 52.6911 8.7786 53.2508 8.1974C53.832 7.6162 54.6069 7.32561 55.5755 7.32561C56.5442 7.32561 57.2868 7.57315 57.8035 8.06825C58.3201 8.56334 58.5784 9.19835 58.5784 9.97328C58.5784 10.8989 58.2878 11.6523 57.7066 12.2335C57.1254 12.7932 56.3074 13.073 55.2527 13.073H55.2204ZM53.2508 19.2401L51.0874 18.6266V16.205L57.5452 15.4301H57.6097L58.6107 16.1081V31.3807L60.548 31.6713V33.8023H51.2489V31.6713L53.2508 31.3807V19.2401ZM62.1123 24.9552C62.1123 23.0394 62.4997 21.3604 63.2747 19.9182C64.0496 18.476 65.1366 17.3674 66.5358 16.5925C67.935 15.796 69.5494 15.3978 71.3791 15.3978C72.2832 15.3978 73.0581 15.4624 73.7039 15.5915C74.3712 15.6991 75.0493 15.8606 75.7381 16.0758C76.3623 16.248 76.7498 16.3449 76.9005 16.3664L76.6745 22.2107H73.4133L72.5738 18.4975C72.5092 18.2177 72.3262 18.0239 72.0249 17.9163C71.745 17.7871 71.4006 17.7226 70.9916 17.7226C69.9799 17.7226 69.1835 18.2177 68.6023 19.2078C68.0426 20.198 67.7628 21.8448 67.7628 24.148C67.7628 26.3436 68.118 28.0334 68.8283 29.2173C69.5602 30.3797 70.5396 30.9609 71.7666 30.9609C73.3595 30.9609 74.8232 30.5519 76.1578 29.734L77.0296 31.639C76.513 32.2202 75.6628 32.7906 74.4788 33.3503C73.2949 33.8884 71.9818 34.1575 70.5396 34.1575C67.7197 34.1575 65.6102 33.3288 64.211 31.6713C62.8118 29.9923 62.1123 27.7536 62.1123 24.9552ZM80.4986 10.4899L78.303 10.0701V8.10053L84.7285 7.32561H84.8253L85.7617 8.00367V23.0825L85.6648 24.6646L91.7351 18.2715L89.3457 17.9163V15.8821H98.1283V17.9163L95.4806 18.3361L91.9934 21.6618L97.3211 31.3807L99.0001 31.6713V33.8023H90.0238V31.6713L91.4768 31.3807L88.2802 24.9875L85.6648 27.6998L85.7294 29.3465V31.3807L87.6022 31.6713V33.8023H78.7228V31.6713L80.4986 31.3807V10.4899Z" fill="white"/>
</svg>
