<svg width="20" height="20" viewBox="0 0 20 20" fill="none" xmlns="http://www.w3.org/2000/svg">
<path fill-rule="evenodd" clip-rule="evenodd" d="M9.67637 1.66675C5.25278 1.66675 1.66675 5.17357 1.66675 9.49946C1.66675 13.8254 5.25278 17.3322 9.67637 17.3322C11.5683 17.3322 13.3071 16.6907 14.6776 15.618L17.281 18.1573L17.3502 18.2156C17.5919 18.3905 17.9346 18.3706 18.1533 18.1562C18.3939 17.9203 18.3934 17.5384 18.1522 17.3031L15.5794 14.7937C16.8875 13.3996 17.686 11.5407 17.686 9.49946C17.686 5.17357 14.1 1.66675 9.67637 1.66675ZM9.67636 2.87319C13.4186 2.87319 16.4523 5.83988 16.4523 9.49946C16.4523 13.159 13.4186 16.1257 9.67636 16.1257C5.93412 16.1257 2.90044 13.159 2.90044 9.49946C2.90044 5.83988 5.93412 2.87319 9.67636 2.87319Z" fill="url(#paint0_linear_114_2545)"/>
<path d="M9.67637 1.66675C5.25278 1.66675 1.66675 5.17357 1.66675 9.49946C1.66675 13.8254 5.25278 17.3322 9.67637 17.3322C11.5683 17.3322 13.3071 16.6907 14.6776 15.618L17.281 18.1573L17.3502 18.2156C17.5919 18.3905 17.9346 18.3706 18.1533 18.1562C18.3939 17.9203 18.3934 17.5384 18.1522 17.3031L15.5794 14.7937C16.8875 13.3996 17.686 11.5407 17.686 9.49946C17.686 5.17357 14.1 1.66675 9.67637 1.66675ZM9.67636 2.87319C13.4186 2.87319 16.4523 5.83988 16.4523 9.49946C16.4523 13.159 13.4186 16.1257 9.67636 16.1257C5.93412 16.1257 2.90044 13.159 2.90044 9.49946C2.90044 5.83988 5.93412 2.87319 9.67636 2.87319Z" stroke="url(#paint2_linear_3_4135)" stroke-width="1.5" stroke-linecap="round" stroke-linejoin="round"/>
<defs>
<linearGradient id="paint0_linear_114_2545" x1="21.5" y1="22" x2="2.19" y2="21.6961" gradientUnits="userSpaceOnUse">
<stop stop-color="#888BF4"/>
<stop offset="1" stop-color="#5151C6"/>
</linearGradient>
<linearGradient id="paint1_linear_114_2545" x1="21.5" y1="22" x2="2.19" y2="21.6961" gradientUnits="userSpaceOnUse">
<stop stop-color="#888BF4"/>
<stop offset="1" stop-color="#5151C6"/>
</linearGradient>
</defs>
</svg>
